<?xml version="1.0" standalone="yes"?>

<svg version="1.1" viewBox="0.0 0.0 768.0 396.0" fill="none" stroke="none" stroke-linecap="square" stroke-miterlimit="10" xmlns="http://www.w3.org/2000/svg" xmlns:xlink="http://www.w3.org/1999/xlink"><clipPath id="p.0"><path d="m0 0l768.0 0l0 396.0l-768.0 0l0 -396.0z" clip-rule="nonzero"></path></clipPath><g clip-path="url(#p.0)"><path fill="#000000" fill-opacity="0.0" d="m0 0l768.50134 0l0 396.5013l-768.50134 0z" fill-rule="nonzero"></path><path fill="#ffffff" d="m7.0 28.459076l0 0c0 -11.299236 9.15984 -20.459076 20.459076 -20.459076l713.06604 0c5.4260864 0 10.629944 2.1555033 14.466797 5.992325c3.836792 3.8368206 5.9923096 9.040667 5.9923096 14.466751l0 341.0661c0 11.299225 -9.159851 20.459076 -20.459106 20.459076l-713.06604 0c-11.299236 0 -20.459076 -9.159851 -20.459076 -20.459076z" fill-rule="nonzero"></path><path stroke="#ffffff" stroke-width="2.0" stroke-linejoin="round" stroke-linecap="butt" d="m7.0 28.459076l0 0c0 -11.299236 9.15984 -20.459076 20.459076 -20.459076l713.06604 0c5.4260864 0 10.629944 2.1555033 14.466797 5.992325c3.836792 3.8368206 5.9923096 9.040667 5.9923096 14.466751l0 341.0661c0 11.299225 -9.159851 20.459076 -20.459106 20.459076l-713.06604 0c-11.299236 0 -20.459076 -9.159851 -20.459076 -20.459076z" fill-rule="nonzero"></path><path fill="#cfe2f3" d="m177.27821 79.637794l443.3468 0l42.511475 120.251976l-42.511475 120.25195l-443.3468 0z" fill-rule="nonzero"></path><path stroke="#000000" stroke-width="2.0" stroke-linejoin="round" stroke-linecap="butt" d="m177.27821 79.637794l443.3468 0l42.511475 120.251976l-42.511475 120.25195l-443.3468 0z" fill-rule="nonzero"></path><path fill="#efefef" d="m204.75348 369.2756l0 0c-5.4388885 0 -9.847961 -4.409088 -9.847961 -9.847992l0 -325.28043c0 -2.611843 1.0375519 -5.1167126 2.8843994 -6.963564c1.8468475 -1.8468513 4.351715 -2.8844013 6.963562 -2.8844013l39.390686 0c5.4388733 0 9.847961 4.4090843 9.847961 9.847965l0 325.28043c0 5.438904 -4.409088 9.847992 -9.847961 9.847992z" fill-rule="nonzero"></path><path stroke="#000000" stroke-width="2.0" stroke-linejoin="round" stroke-linecap="butt" d="m204.75348 369.2756l0 0c-5.4388885 0 -9.847961 -4.409088 -9.847961 -9.847992l0 -325.28043c0 -2.611843 1.0375519 -5.1167126 2.8843994 -6.963564c1.8468475 -1.8468513 4.351715 -2.8844013 6.963562 -2.8844013l39.390686 0c5.4388733 0 9.847961 4.4090843 9.847961 9.847965l0 325.28043c0 5.438904 -4.409088 9.847992 -9.847961 9.847992z" fill-rule="nonzero"></path><path fill="#000000" d="m231.36882 225.88164l-13.59375 0l0 -6.03125q0 -1.8125 0.359375 -2.75q0.359375 -0.953125 1.296875 -1.515625q0.921875 -0.5625 2.046875 -0.5625q1.453125 0 2.453125 0.9375q0.984375 0.921875 1.25 2.890625q0.34375 -0.71875 0.671875 -1.09375q0.734375 -0.78125 1.8125 -1.484375l3.703125 -2.375l0 2.265625l-2.828125 1.796875q-1.21875 0.796875 -1.875 1.3125q-0.65625 0.5 -0.90625 0.90625q-0.265625 0.40625 -0.359375 0.8125q-0.078125 0.3125 -0.078125 1.015625l0 2.078125l6.046875 0l0 1.796875zm-7.59375 -1.796875l0 -3.859375q0 -1.234375 -0.25 -1.921875q-0.265625 -0.703125 -0.828125 -1.0625q-0.5625 -0.375 -1.21875 -0.375q-0.96875 0 -1.578125 0.703125q-0.625 0.703125 -0.625 2.21875l0 4.296875l4.5 0zm4.421875 -18.176071l0.21875 -1.71875q1.5 0.40625 2.34375 1.515625q0.828125 1.09375 0.828125 2.8125q0 2.15625 -1.328125 3.421875q-1.328125 1.265625 -3.734375 1.265625q-2.484375 0 -3.859375 -1.265625q-1.375 -1.28125 -1.375 -3.328125q0 -1.984375 1.34375 -3.234375q1.34375 -1.25 3.796875 -1.25q0.140625 0 0.4375 0.015625l0 7.34375q1.625 -0.09375 2.484375 -0.921875q0.859375 -0.828125 0.859375 -2.0625q0 -0.90625 -0.46875 -1.546875q-0.484375 -0.65625 -1.546875 -1.046875zm-2.703125 5.484375l0 -5.5q-1.234375 0.109375 -1.859375 0.625q-0.96875 0.796875 -0.96875 2.078125q0 1.140625 0.78125 1.9375q0.765625 0.78125 2.046875 0.859375zm4.65625 -15.547592q0.796875 0.9375 1.125 1.796875q0.3125 0.859375 0.3125 1.84375q0 1.609375 -0.78125 2.484375q-0.796875 0.875 -2.03125 0.875q-0.734375 0 -1.328125 -0.328125q-0.59375 -0.328125 -0.953125 -0.859375q-0.359375 -0.53125 -0.546875 -1.203125q-0.140625 -0.5 -0.25 -1.484375q-0.25 -2.03125 -0.578125 -2.984375q-0.34375 0 -0.4375 0q-1.015625 0 -1.4375 0.46875q-0.5625 0.640625 -0.5625 1.90625q0 1.171875 0.40625 1.734375q0.40625 0.5625 1.46875 0.828125l-0.234375 1.640625q-1.046875 -0.234375 -1.6875 -0.734375q-0.640625 -0.515625 -0.984375 -1.46875q-0.359375 -0.96875 -0.359375 -2.25q0 -1.265625 0.296875 -2.046875q0.296875 -0.78125 0.75 -1.15625q0.453125 -0.375 1.140625 -0.515625q0.421875 -0.09375 1.53125 -0.09375l2.234375 0q2.328125 0 2.953125 -0.09375q0.609375 -0.109375 1.171875 -0.4375l0 1.75q-0.515625 0.265625 -1.21875 0.328125zm-3.71875 0.140625q0.359375 0.90625 0.625 2.734375q0.140625 1.03125 0.328125 1.453125q0.1875 0.421875 0.546875 0.65625q0.359375 0.234375 0.796875 0.234375q0.671875 0 1.125 -0.5q0.4375 -0.515625 0.4375 -1.484375q0 -0.96875 -0.421875 -1.71875q-0.4375 -0.75 -1.15625 -1.109375q-0.578125 -0.265625 -1.671875 -0.265625l-0.609375 0zm4.9375 -10.469467l-1.25 0q1.46875 0.9375 1.46875 2.75q0 1.171875 -0.640625 2.171875q-0.65625 0.984375 -1.8125 1.53125q-1.171875 0.53125 -2.6875 0.53125q-1.46875 0 -2.671875 -0.484375q-1.203125 -0.5 -1.84375 -1.46875q-0.640625 -0.984375 -0.640625 -2.203125q0 -0.890625 0.375 -1.578125q0.375 -0.703125 0.984375 -1.140625l-4.875 0l0 -1.65625l13.59375 0l0 1.546875zm-4.921875 5.28125q1.890625 0 2.828125 -0.796875q0.9375 -0.8125 0.9375 -1.890625q0 -1.09375 -0.890625 -1.859375q-0.890625 -0.765625 -2.734375 -0.765625q-2.015625 0 -2.953125 0.78125q-0.953125 0.78125 -0.953125 1.921875q0 1.109375 0.90625 1.859375q0.90625 0.75 2.859375 0.75zm1.75 -16.016342l0.21875 -1.71875q1.5 0.40625 2.34375 1.515625q0.828125 1.09375 0.828125 2.8125q0 2.15625 -1.328125 3.421875q-1.328125 1.265625 -3.734375 1.265625q-2.484375 0 -3.859375 -1.265625q-1.375 -1.28125 -1.375 -3.328125q0 -1.984375 1.34375 -3.234375q1.34375 -1.25 3.796875 -1.25q0.140625 0 0.4375 0.015625l0 7.34375q1.625 -0.09375 2.484375 -0.921875q0.859375 -0.828125 0.859375 -2.0625q0 -0.90625 -0.46875 -1.546875q-0.484375 -0.65625 -1.546875 -1.046875zm-2.703125 5.484375l0 -5.5q-1.234375 0.109375 -1.859375 0.625q-0.96875 0.796875 -0.96875 2.078125q0 1.140625 0.78125 1.9375q0.765625 0.78125 2.046875 0.859375zm5.875 -9.094467l-9.859375 0l0 -1.5l1.5 0q-1.046875 -0.578125 -1.375 -1.0625q-0.34375 -0.484375 -0.34375 -1.078125q0 -0.84375 0.546875 -1.71875l1.546875 0.578125q-0.359375 0.609375 -0.359375 1.234375q0 0.546875 0.328125 0.984375q0.328125 0.421875 0.90625 0.609375q0.890625 0.28125 1.953125 0.28125l5.15625 0l0 1.671875z" fill-rule="nonzero"></path><path fill="#efefef" d="m286.06583 369.2756l0 0c-5.438904 0 -9.847992 -4.409088 -9.847992 -9.847992l0 -325.28043c0 -2.611843 1.0375671 -5.1167126 2.88443 -6.963564c1.8468323 -1.8468513 4.351715 -2.8844013 6.963562 -2.8844013l39.390656 0c5.438904 0 9.847992 4.4090843 9.847992 9.847965l0 325.28043c0 5.438904 -4.409088 9.847992 -9.847992 9.847992z" fill-rule="nonzero"></path><path stroke="#000000" stroke-width="2.0" stroke-linejoin="round" stroke-linecap="butt" d="m286.06583 369.2756l0 0c-5.438904 0 -9.847992 -4.409088 -9.847992 -9.847992l0 -325.28043c0 -2.611843 1.0375671 -5.1167126 2.88443 -6.963564c1.8468323 -1.8468513 4.351715 -2.8844013 6.963562 -2.8844013l39.390656 0c5.438904 0 9.847992 4.4090843 9.847992 9.847965l0 325.28043c0 5.438904 -4.409088 9.847992 -9.847992 9.847992z" fill-rule="nonzero"></path><path fill="#000000" d="m312.68115 267.45093l-13.59375 0l0 -2.71875l9.625 -3.21875q1.34375 -0.4375 2.015625 -0.640625q-0.75 -0.234375 -2.1875 -0.734375l-9.453125 -3.25l0 -2.421875l13.59375 0l0 1.734375l-11.390625 0l11.390625 3.953125l0 1.625l-11.578125 3.9375l11.578125 0l0 1.734375zm-1.21875 -21.822052q0.796875 0.9375 1.125 1.796875q0.3125 0.859375 0.3125 1.84375q0 1.609375 -0.78125 2.484375q-0.796875 0.875 -2.03125 0.875q-0.734375 0 -1.328125 -0.328125q-0.59375 -0.328125 -0.953125 -0.859375q-0.359375 -0.53125 -0.546875 -1.203125q-0.140625 -0.5 -0.25 -1.484375q-0.25 -2.03125 -0.578125 -2.984375q-0.34375 0 -0.4375 0q-1.015625 0 -1.4375 0.46875q-0.5625 0.640625 -0.5625 1.90625q0 1.171875 0.40625 1.734375q0.40625 0.5625 1.46875 0.828125l-0.234375 1.640625q-1.046875 -0.234375 -1.6875 -0.734375q-0.640625 -0.515625 -0.984375 -1.46875q-0.359375 -0.96875 -0.359375 -2.25q0 -1.265625 0.296875 -2.046875q0.296875 -0.78125 0.75 -1.15625q0.453125 -0.375 1.140625 -0.515625q0.421875 -0.09375 1.53125 -0.09375l2.234375 0q2.328125 0 2.953125 -0.09375q0.609375 -0.109375 1.171875 -0.4375l0 1.75q-0.515625 0.265625 -1.21875 0.328125zm-3.71875 0.140625q0.359375 0.90625 0.625 2.734375q0.140625 1.03125 0.328125 1.453125q0.1875 0.421875 0.546875 0.65625q0.359375 0.234375 0.796875 0.234375q0.671875 0 1.125 -0.5q0.4375 -0.515625 0.4375 -1.484375q0 -0.96875 -0.421875 -1.71875q-0.4375 -0.75 -1.15625 -1.109375q-0.578125 -0.265625 -1.671875 -0.265625l-0.609375 0zm1.328125 -10.516342l0.21875 -1.640625q1.6875 0.265625 2.65625 1.375q0.953125 1.109375 0.953125 2.734375q0 2.015625 -1.3125 3.25q-1.328125 1.21875 -3.796875 1.21875q-1.59375 0 -2.78125 -0.515625q-1.203125 -0.53125 -1.796875 -1.609375q-0.609375 -1.09375 -0.609375 -2.359375q0 -1.609375 0.8125 -2.625q0.8125 -1.015625 2.3125 -1.3125l0.25 1.625q-1.0 0.234375 -1.5 0.828125q-0.5 0.59375 -0.5 1.421875q0 1.265625 0.90625 2.0625q0.90625 0.78125 2.859375 0.78125q1.984375 0 2.890625 -0.765625q0.890625 -0.765625 0.890625 -1.984375q0 -0.984375 -0.59375 -1.640625q-0.609375 -0.65625 -1.859375 -0.84375zm3.609375 -2.875l-9.859375 0l0 -1.5l1.5 0q-1.046875 -0.578125 -1.375 -1.0625q-0.34375 -0.484375 -0.34375 -1.078125q0 -0.84375 0.546875 -1.71875l1.546875 0.578125q-0.359375 0.609375 -0.359375 1.234375q0 0.546875 0.328125 0.984375q0.328125 0.421875 0.90625 0.609375q0.890625 0.28125 1.953125 0.28125l5.15625 0l0 1.671875zm-4.921875 -5.603302q-2.734375 0 -4.0625 -1.53125q-1.09375 -1.265625 -1.09375 -3.09375q0 -2.03125 1.34375 -3.3125q1.328125 -1.296875 3.671875 -1.296875q1.90625 0 3.0 0.578125q1.078125 0.5625 1.6875 1.65625q0.59375 1.078125 0.59375 2.375q0 2.0625 -1.328125 3.34375q-1.328125 1.28125 -3.8125 1.28125zm0 -1.71875q1.890625 0 2.828125 -0.828125q0.9375 -0.828125 0.9375 -2.078125q0 -1.25 -0.9375 -2.0625q-0.953125 -0.828125 -2.890625 -0.828125q-1.828125 0 -2.765625 0.828125q-0.9375 0.828125 -0.9375 2.0625q0 1.25 0.9375 2.078125q0.9375 0.828125 2.828125 0.828125zm4.921875 -14.715271l-13.59375 0l0 -9.84375l1.59375 0l0 8.046875l4.171875 0l0 -7.53125l1.59375 0l0 7.53125l4.625 0l0 -8.359375l1.609375 0l0 10.15625zm0 -11.084198l-5.125 -3.59375l-4.734375 3.328125l0 -2.09375l2.3125 -1.515625q0.65625 -0.421875 1.109375 -0.671875q-0.609375 -0.421875 -1.09375 -0.765625l-2.328125 -1.65625l0 -1.984375l4.640625 3.390625l5.21875 -3.65625l0 2.046875l-3.0625 2.03125l-0.828125 0.53125l3.890625 2.59375l0 2.015625zm3.78125 -10.4375l-13.640625 0l0 -1.53125l1.28125 0q-0.75 -0.53125 -1.125 -1.203125q-0.375 -0.6875 -0.375 -1.640625q0 -1.265625 0.65625 -2.234375q0.640625 -0.96875 1.828125 -1.453125q1.1875 -0.5 2.59375 -0.5q1.515625 0 2.734375 0.546875q1.203125 0.546875 1.84375 1.578125q0.640625 1.03125 0.640625 2.171875q0 0.84375 -0.34375 1.515625q-0.359375 0.65625 -0.890625 1.078125l4.796875 0l0 1.671875zm-8.65625 -1.515625q1.90625 0 2.8125 -0.765625q0.90625 -0.78125 0.90625 -1.875q0 -1.109375 -0.9375 -1.890625q-0.9375 -0.796875 -2.921875 -0.796875q-1.875 0 -2.8125 0.78125q-0.9375 0.765625 -0.9375 1.84375q0 1.0625 1.0 1.890625q1.0 0.8125 2.890625 0.8125zm3.65625 -15.297577q0.796875 0.9375 1.125 1.796875q0.3125 0.859375 0.3125 1.84375q0 1.609375 -0.78125 2.484375q-0.796875 0.875 -2.03125 0.875q-0.734375 0 -1.328125 -0.328125q-0.59375 -0.328125 -0.953125 -0.859375q-0.359375 -0.53125 -0.546875 -1.203125q-0.140625 -0.5 -0.25 -1.484375q-0.25 -2.03125 -0.578125 -2.984375q-0.34375 0 -0.4375 0q-1.015625 0 -1.4375 0.46875q-0.5625 0.640625 -0.5625 1.90625q0 1.171875 0.40625 1.734375q0.40625 0.5625 1.46875 0.828125l-0.234375 1.640625q-1.046875 -0.234375 -1.6875 -0.734375q-0.640625 -0.515625 -0.984375 -1.46875q-0.359375 -0.96875 -0.359375 -2.25q0 -1.265625 0.296875 -2.046875q0.296875 -0.78125 0.75 -1.15625q0.453125 -0.375 1.140625 -0.515625q0.421875 -0.09375 1.53125 -0.09375l2.234375 0q2.328125 0 2.953125 -0.09375q0.609375 -0.109375 1.171875 -0.4375l0 1.75q-0.515625 0.265625 -1.21875 0.328125zm-3.71875 0.140625q0.359375 0.90625 0.625 2.734375q0.140625 1.03125 0.328125 1.453125q0.1875 0.421875 0.546875 0.65625q0.359375 0.234375 0.796875 0.234375q0.671875 0 1.125 -0.5q0.4375 -0.515625 0.4375 -1.484375q0 -0.96875 -0.421875 -1.71875q-0.4375 -0.75 -1.15625 -1.109375q-0.578125 -0.265625 -1.671875 -0.265625l-0.609375 0zm4.9375 -4.0788574l-9.859375 0l0 -1.5l1.40625 0q-1.625 -1.09375 -1.625 -3.140625q0 -0.890625 0.328125 -1.640625q0.3125 -0.75 0.84375 -1.109375q0.515625 -0.375 1.21875 -0.53125q0.46875 -0.09375 1.625 -0.09375l6.0625 0l0 1.671875l-6.0 0q-1.015625 0 -1.515625 0.203125q-0.515625 0.1875 -0.8125 0.6875q-0.296875 0.5 -0.296875 1.171875q0 1.0625 0.671875 1.84375q0.671875 0.765625 2.578125 0.765625l5.375 0l0 1.671875zm-2.9375 -9.703827l-0.265625 -1.65625q1.0 -0.140625 1.53125 -0.765625q0.515625 -0.640625 0.515625 -1.78125q0 -1.15625 -0.46875 -1.703125q-0.46875 -0.5625 -1.09375 -0.5625q-0.5625 0 -0.890625 0.484375q-0.21875 0.34375 -0.5625 1.703125q-0.46875 1.84375 -0.796875 2.5625q-0.34375 0.703125 -0.9375 1.078125q-0.609375 0.359375 -1.328125 0.359375q-0.65625 0 -1.21875 -0.296875q-0.5625 -0.3125 -0.9375 -0.828125q-0.28125 -0.390625 -0.484375 -1.0625q-0.203125 -0.671875 -0.203125 -1.4375q0 -1.171875 0.34375 -2.046875q0.328125 -0.875 0.90625 -1.28125q0.5625 -0.421875 1.515625 -0.578125l0.21875 1.625q-0.75 0.109375 -1.171875 0.65625q-0.4375 0.53125 -0.4375 1.5q0 1.15625 0.390625 1.640625q0.375 0.484375 0.875 0.484375q0.328125 0 0.59375 -0.203125q0.265625 -0.203125 0.4375 -0.640625q0.09375 -0.25 0.4375 -1.46875q0.46875 -1.765625 0.765625 -2.46875q0.296875 -0.703125 0.875 -1.09375q0.578125 -0.40625 1.4375 -0.40625q0.828125 0 1.578125 0.484375q0.734375 0.484375 1.140625 1.40625q0.390625 0.921875 0.390625 2.078125q0 1.921875 -0.796875 2.9375q-0.796875 1.0 -2.359375 1.28125zm-8.75 -10.015625l-1.90625 0l0 -1.671875l1.90625 0l0 1.671875zm11.6875 0l-9.859375 0l0 -1.671875l9.859375 0l0 1.671875zm-4.921875 -3.5042114q-2.734375 0 -4.0625 -1.53125q-1.09375 -1.265625 -1.09375 -3.09375q0 -2.03125 1.34375 -3.3125q1.328125 -1.296875 3.671875 -1.296875q1.90625 0 3.0 0.578125q1.078125 0.5625 1.6875 1.65625q0.59375 1.078125 0.59375 2.375q0 2.0625 -1.328125 3.34375q-1.328125 1.28125 -3.8125 1.28125zm0 -1.71875q1.890625 0 2.828125 -0.828125q0.9375 -0.828125 0.9375 -2.078125q0 -1.25 -0.9375 -2.0625q-0.953125 -0.828125 -2.890625 -0.828125q-1.828125 0 -2.765625 0.828125q-0.9375 0.828125 -0.9375 2.0625q0 1.25 0.9375 2.078125q0.9375 0.828125 2.828125 0.828125zm4.921875 -9.281952l-9.859375 0l0 -1.5l1.40625 0q-1.625 -1.09375 -1.625 -3.140625q0 -0.890625 0.328125 -1.640625q0.3125 -0.75 0.84375 -1.109375q0.515625 -0.375 1.21875 -0.53125q0.46875 -0.09375 1.625 -0.09375l6.0625 0l0 1.671875l-6.0 0q-1.015625 0 -1.515625 0.203125q-0.515625 0.1875 -0.8125 0.6875q-0.296875 0.5 -0.296875 1.171875q0 1.0625 0.671875 1.84375q0.671875 0.765625 2.578125 0.765625l5.375 0l0 1.671875z" fill-rule="nonzero"></path><path fill="#efefef" d="m367.37814 369.2756l0 0c-5.4388733 0 -9.847961 -4.409088 -9.847961 -9.847992l0 -325.28043c0 -2.611843 1.0375671 -5.1167126 2.8843994 -6.963564c1.8468628 -1.8468513 4.351715 -2.8844013 6.963562 -2.8844013l39.390686 0c5.4388733 0 9.847961 4.4090843 9.847961 9.847965l0 325.28043c0 5.438904 -4.409088 9.847992 -9.847961 9.847992z" fill-rule="nonzero"></path><path stroke="#000000" stroke-width="2.0" stroke-linejoin="round" stroke-linecap="butt" d="m367.37814 369.2756l0 0c-5.4388733 0 -9.847961 -4.409088 -9.847961 -9.847992l0 -325.28043c0 -2.611843 1.0375671 -5.1167126 2.8843994 -6.963564c1.8468628 -1.8468513 4.351715 -2.8844013 6.963562 -2.8844013l39.390686 0c5.4388733 0 9.847961 4.4090843 9.847961 9.847965l0 325.28043c0 5.438904 -4.409088 9.847992 -9.847961 9.847992z" fill-rule="nonzero"></path><path fill="#000000" d="m389.22787 277.8947l0.453125 -1.796875q2.21875 0.5625 3.390625 2.03125q1.15625 1.46875 1.15625 3.59375q0 2.203125 -0.890625 3.578125q-0.90625 1.375 -2.59375 2.09375q-1.703125 0.71875 -3.65625 0.71875q-2.125 0 -3.703125 -0.796875q-1.578125 -0.8125 -2.390625 -2.3125q-0.828125 -1.5 -0.828125 -3.296875q0 -2.046875 1.046875 -3.4375q1.03125 -1.390625 2.90625 -1.9375l0.421875 1.765625q-1.484375 0.46875 -2.15625 1.375q-0.6875 0.90625 -0.6875 2.265625q0 1.5625 0.75 2.625q0.75 1.046875 2.03125 1.484375q1.265625 0.421875 2.609375 0.421875q1.734375 0 3.03125 -0.5q1.28125 -0.515625 1.921875 -1.578125q0.640625 -1.078125 0.640625 -2.3125q0 -1.515625 -0.859375 -2.5625q-0.875 -1.046875 -2.59375 -1.421875zm4.765625 -3.519806l-13.59375 0l0 -1.671875l13.59375 0l0 1.671875zm-4.921875 -3.5510864q-2.734375 0 -4.0625 -1.53125q-1.09375 -1.265625 -1.09375 -3.09375q0 -2.03125 1.34375 -3.3125q1.328125 -1.296875 3.671875 -1.296875q1.90625 0 3.0 0.578125q1.078125 0.5625 1.6875 1.65625q0.59375 1.078125 0.59375 2.375q0 2.0625 -1.328125 3.34375q-1.328125 1.28125 -3.8125 1.28125zm0 -1.71875q1.890625 0 2.828125 -0.828125q0.9375 -0.828125 0.9375 -2.078125q0 -1.25 -0.9375 -2.0625q-0.953125 -0.828125 -2.890625 -0.828125q-1.828125 0 -2.765625 0.828125q-0.9375 0.828125 -0.9375 2.0625q0 1.25 0.9375 2.078125q0.9375 0.828125 2.828125 0.828125zm-6.734375 -9.281952l-1.9375 0l0 -1.65625l1.9375 0l0 1.65625zm15.484375 2.125l-1.421875 -0.3125q0.125 -0.5 0.125 -0.796875q0 -0.515625 -0.34375 -0.765625q-0.328125 -0.25 -1.6875 -0.25l-10.359375 0l0 -1.65625l10.390625 0q1.828125 0 2.546875 0.46875q0.921875 0.59375 0.921875 2.0q0 0.671875 -0.171875 1.3125zm-3.828125 -12.722946l-1.453125 0q1.671875 1.140625 1.671875 3.125q0 0.859375 -0.328125 1.625q-0.34375 0.75 -0.84375 1.125q-0.5 0.359375 -1.234375 0.515625q-0.5 0.09375 -1.5625 0.09375l-6.109375 0l0 -1.671875l5.46875 0q1.3125 0 1.765625 -0.09375q0.65625 -0.15625 1.03125 -0.671875q0.375 -0.515625 0.375 -1.265625q0 -0.75 -0.375 -1.40625q-0.390625 -0.65625 -1.046875 -0.921875q-0.671875 -0.28125 -1.9375 -0.28125l-5.28125 0l0 -1.671875l9.859375 0l0 1.5zm0 -3.9069672l-9.859375 0l0 -1.5l1.5 0q-1.046875 -0.578125 -1.375 -1.0625q-0.34375 -0.484375 -0.34375 -1.078125q0 -0.84375 0.546875 -1.71875l1.546875 0.578125q-0.359375 0.609375 -0.359375 1.234375q0 0.546875 0.328125 0.984375q0.328125 0.421875 0.90625 0.609375q0.890625 0.28125 1.953125 0.28125l5.15625 0l0 1.671875zm-3.171875 -12.978302l0.21875 -1.71875q1.5 0.40625 2.34375 1.515625q0.828125 1.09375 0.828125 2.8125q0 2.15625 -1.328125 3.421875q-1.328125 1.265625 -3.734375 1.265625q-2.484375 0 -3.859375 -1.265625q-1.375 -1.28125 -1.375 -3.328125q0 -1.984375 1.34375 -3.234375q1.34375 -1.25 3.796875 -1.25q0.140625 0 0.4375 0.015625l0 7.34375q1.625 -0.09375 2.484375 -0.921875q0.859375 -0.828125 0.859375 -2.0625q0 -0.90625 -0.46875 -1.546875q-0.484375 -0.65625 -1.546875 -1.046875zm-2.703125 5.484375l0 -5.5q-1.234375 0.109375 -1.859375 0.625q-0.96875 0.796875 -0.96875 2.078125q0 1.140625 0.78125 1.9375q0.765625 0.78125 2.046875 0.859375zm1.5 -8.719467l-0.140625 -1.6875q1.015625 -0.125 1.671875 -0.5625q0.65625 -0.4375 1.0625 -1.359375q0.40625 -0.9375 0.40625 -2.09375q0 -1.03125 -0.3125 -1.8125q-0.3125 -0.796875 -0.84375 -1.1875q-0.53125 -0.390625 -1.15625 -0.390625q-0.640625 0 -1.109375 0.375q-0.484375 0.375 -0.8125 1.234375q-0.21875 0.546875 -0.65625 2.421875q-0.453125 1.875 -0.859375 2.625q-0.515625 0.96875 -1.265625 1.453125q-0.75 0.46875 -1.6875 0.46875q-1.03125 0 -1.921875 -0.578125q-0.90625 -0.59375 -1.359375 -1.703125q-0.46875 -1.125 -0.46875 -2.5q0 -1.515625 0.484375 -2.671875q0.484375 -1.15625 1.4375 -1.765625q0.9375 -0.625 2.140625 -0.671875l0.125 1.71875q-1.28125 0.140625 -1.9375 0.953125q-0.671875 0.796875 -0.671875 2.359375q0 1.625 0.609375 2.375q0.59375 0.75 1.4375 0.75q0.734375 0 1.203125 -0.53125q0.46875 -0.515625 0.96875 -2.703125q0.5 -2.203125 0.875 -3.015625q0.546875 -1.1875 1.390625 -1.75q0.828125 -0.578125 1.921875 -0.578125q1.09375 0 2.0625 0.625q0.953125 0.625 1.484375 1.796875q0.53125 1.15625 0.53125 2.609375q0 1.84375 -0.53125 3.09375q-0.546875 1.25 -1.625 1.96875q-1.078125 0.703125 -2.453125 0.734375zm0.765625 -19.271698l0.21875 -1.640625q1.6875 0.265625 2.65625 1.375q0.953125 1.109375 0.953125 2.734375q0 2.015625 -1.3125 3.25q-1.328125 1.21875 -3.796875 1.21875q-1.59375 0 -2.78125 -0.515625q-1.203125 -0.53125 -1.796875 -1.609375q-0.609375 -1.09375 -0.609375 -2.359375q0 -1.609375 0.8125 -2.625q0.8125 -1.015625 2.3125 -1.3125l0.25 1.625q-1.0 0.234375 -1.5 0.828125q-0.5 0.59375 -0.5 1.421875q0 1.265625 0.90625 2.0625q0.90625 0.78125 2.859375 0.78125q1.984375 0 2.890625 -0.765625q0.890625 -0.765625 0.890625 -1.984375q0 -0.984375 -0.59375 -1.640625q-0.609375 -0.65625 -1.859375 -0.84375zm3.609375 -2.875l-9.859375 0l0 -1.5l1.5 0q-1.046875 -0.578125 -1.375 -1.0625q-0.34375 -0.484375 -0.34375 -1.078125q0 -0.84375 0.546875 -1.71875l1.546875 0.578125q-0.359375 0.609375 -0.359375 1.234375q0 0.546875 0.328125 0.984375q0.328125 0.421875 0.90625 0.609375q0.890625 0.28125 1.953125 0.28125l5.15625 0l0 1.671875zm-11.6875 -6.243927l-1.90625 0l0 -1.671875l1.90625 0l0 1.671875zm11.6875 0l-9.859375 0l0 -1.671875l9.859375 0l0 1.671875zm3.78125 -4.129196l-13.640625 0l0 -1.53125l1.28125 0q-0.75 -0.53125 -1.125 -1.203125q-0.375 -0.6875 -0.375 -1.640625q0 -1.265625 0.65625 -2.234375q0.640625 -0.96875 1.828125 -1.453125q1.1875 -0.5 2.59375 -0.5q1.515625 0 2.734375 0.546875q1.203125 0.546875 1.84375 1.578125q0.640625 1.03125 0.640625 2.171875q0 0.84375 -0.34375 1.515625q-0.359375 0.65625 -0.890625 1.078125l4.796875 0l0 1.671875zm-8.65625 -1.515625q1.90625 0 2.8125 -0.765625q0.90625 -0.78125 0.90625 -1.875q0 -1.109375 -0.9375 -1.890625q-0.9375 -0.796875 -2.921875 -0.796875q-1.875 0 -2.8125 0.78125q-0.9375 0.765625 -0.9375 1.84375q0 1.0625 1.0 1.890625q1.0 0.8125 2.890625 0.8125zm3.375 -12.516342l1.484375 -0.234375q0.140625 0.703125 0.140625 1.265625q0 0.90625 -0.28125 1.40625q-0.296875 0.5 -0.75 0.703125q-0.46875 0.203125 -1.984375 0.203125l-5.65625 0l0 1.234375l-1.3125 0l0 -1.234375l-2.4375 0l-1.0 -1.65625l3.4375 0l0 -1.6875l1.3125 0l0 1.6875l5.75 0q0.71875 0 0.921875 -0.078125q0.203125 -0.09375 0.328125 -0.296875q0.125 -0.203125 0.125 -0.578125q0 -0.265625 -0.078125 -0.734375zm1.5 -5.4291077l-13.59375 -5.234375l0 -1.9375l13.59375 -5.5625l0 2.046875l-4.125 1.59375l0 5.6875l4.125 1.484375l0 1.921875zm-5.578125 -3.921875l0 -4.609375l-3.78125 1.40625q-1.703125 0.65625 -2.8125 0.96875q1.3125 0.265625 2.59375 0.734375l4.0 1.5zm5.578125 -9.802948l-9.859375 0l0 -1.5l1.40625 0q-1.625 -1.09375 -1.625 -3.140625q0 -0.890625 0.328125 -1.640625q0.3125 -0.75 0.84375 -1.109375q0.515625 -0.375 1.21875 -0.53125q0.46875 -0.09375 1.625 -0.09375l6.0625 0l0 1.671875l-6.0 0q-1.015625 0 -1.515625 0.203125q-0.515625 0.1875 -0.8125 0.6875q-0.296875 0.5 -0.296875 1.171875q0 1.0625 0.671875 1.84375q0.671875 0.765625 2.578125 0.765625l5.375 0l0 1.671875zm-1.21875 -16.813217q0.796875 0.9375 1.125 1.796875q0.3125 0.859375 0.3125 1.84375q0 1.609375 -0.78125 2.484375q-0.796875 0.875 -2.03125 0.875q-0.734375 0 -1.328125 -0.328125q-0.59375 -0.328125 -0.953125 -0.859375q-0.359375 -0.53125 -0.546875 -1.203125q-0.140625 -0.5 -0.25 -1.484375q-0.25 -2.03125 -0.578125 -2.984375q-0.34375 0 -0.4375 0q-1.015625 0 -1.4375 0.46875q-0.5625 0.640625 -0.5625 1.90625q0 1.171875 0.40625 1.734375q0.40625 0.5625 1.46875 0.828125l-0.234375 1.640625q-1.046875 -0.234375 -1.6875 -0.734375q-0.640625 -0.515625 -0.984375 -1.46875q-0.359375 -0.96875 -0.359375 -2.25q0 -1.265625 0.296875 -2.046875q0.296875 -0.78125 0.75 -1.15625q0.453125 -0.375 1.140625 -0.515625q0.421875 -0.09375 1.53125 -0.09375l2.234375 0q2.328125 0 2.953125 -0.09375q0.609375 -0.109375 1.171875 -0.4375l0 1.75q-0.515625 0.265625 -1.21875 0.328125zm-3.71875 0.140625q0.359375 0.90625 0.625 2.734375q0.140625 1.03125 0.328125 1.453125q0.1875 0.421875 0.546875 0.65625q0.359375 0.234375 0.796875 0.234375q0.671875 0 1.125 -0.5q0.4375 -0.515625 0.4375 -1.484375q0 -0.96875 -0.421875 -1.71875q-0.4375 -0.75 -1.15625 -1.109375q-0.578125 -0.265625 -1.671875 -0.265625l-0.609375 0zm4.9375 -4.047592l-13.59375 0l0 -1.671875l13.59375 0l0 1.671875zm3.796875 -4.097946l-1.5625 0.171875q0.140625 -0.546875 0.140625 -0.953125q0 -0.546875 -0.1875 -0.875q-0.1875 -0.34375 -0.515625 -0.5625q-0.25 -0.15625 -1.25 -0.5q-0.140625 -0.046875 -0.40625 -0.15625l-9.875 3.734375l0 -1.796875l5.71875 -2.046875q1.078125 -0.40625 2.28125 -0.71875q-1.15625 -0.28125 -2.25 -0.6875l-5.75 -2.09375l0 -1.671875l10.03125 3.75q1.625 0.59375 2.234375 0.9375q0.828125 0.4375 1.203125 1.015625q0.390625 0.578125 0.390625 1.375q0 0.484375 -0.203125 1.078125zm-3.796875 -8.53125l-1.359375 0l-7.1875 -6.265625q0.046875 1.0625 0.046875 1.875l0 4.015625l-1.359375 0l0 -8.046875l1.109375 0l6.25 5.34375l1.140625 1.015625q-0.078125 -1.109375 -0.078125 -2.09375l0 -4.5625l1.4375 0l0 8.71875zm-3.171875 -16.953125l0.21875 -1.71875q1.5 0.40625 2.34375 1.515625q0.828125 1.09375 0.828125 2.8125q0 2.15625 -1.328125 3.421875q-1.328125 1.265625 -3.734375 1.265625q-2.484375 0 -3.859375 -1.265625q-1.375 -1.28125 -1.375 -3.328125q0 -1.984375 1.34375 -3.234375q1.34375 -1.25 3.796875 -1.25q0.140625 0 0.4375 0.015625l0 7.34375q1.625 -0.09375 2.484375 -0.921875q0.859375 -0.828125 0.859375 -2.0625q0 -0.90625 -0.46875 -1.546875q-0.484375 -0.65625 -1.546875 -1.046875zm-2.703125 5.484375l0 -5.5q-1.234375 0.109375 -1.859375 0.625q-0.96875 0.796875 -0.96875 2.078125q0 1.140625 0.78125 1.9375q0.765625 0.78125 2.046875 0.859375zm5.875 -9.094467l-9.859375 0l0 -1.5l1.5 0q-1.046875 -0.578125 -1.375 -1.0625q-0.34375 -0.484375 -0.34375 -1.078125q0 -0.84375 0.546875 -1.71875l1.546875 0.578125q-0.359375 0.609375 -0.359375 1.234375q0 0.546875 0.328125 0.984375q0.328125 0.421875 0.90625 0.609375q0.890625 0.28125 1.953125 0.28125l5.15625 0l0 1.671875z" fill-rule="nonzero"></path><path fill="#efefef" d="m448.6905 369.2756l0 0c-5.4388733 0 -9.847961 -4.409088 -9.847961 -9.847992l0 -325.28043c0 -2.611843 1.0375366 -5.1167126 2.8843994 -6.963564c1.8468323 -1.8468513 4.351715 -2.8844013 6.963562 -2.8844013l39.390686 0c5.4388733 0 9.847961 4.4090843 9.847961 9.847965l0 325.28043c0 5.438904 -4.409088 9.847992 -9.847961 9.847992z" fill-rule="nonzero"></path><path stroke="#000000" stroke-width="2.0" stroke-linejoin="round" stroke-linecap="butt" d="m448.6905 369.2756l0 0c-5.4388733 0 -9.847961 -4.409088 -9.847961 -9.847992l0 -325.28043c0 -2.611843 1.0375366 -5.1167126 2.8843994 -6.963564c1.8468323 -1.8468513 4.351715 -2.8844013 6.963562 -2.8844013l39.390686 0c5.4388733 0 9.847961 4.4090843 9.847961 9.847965l0 325.28043c0 5.438904 -4.409088 9.847992 -9.847961 9.847992z" fill-rule="nonzero"></path><path fill="#000000" d="m471.44644 239.26012l-0.21875 -1.625q1.546875 -0.0625 2.125 -0.578125q0.578125 -0.53125 0.578125 -1.4375q0 -0.6875 -0.3125 -1.171875q-0.3125 -0.5 -0.84375 -0.671875q-0.53125 -0.1875 -1.703125 -0.1875l-9.359375 0l0 -1.8125l9.265625 0q1.703125 0 2.640625 0.421875q0.9375 0.40625 1.4375 1.3125q0.484375 0.890625 0.484375 2.09375q0 1.796875 -1.03125 2.75q-1.03125 0.9375 -3.0625 0.90625zm-0.515625 -9.640625l-0.140625 -1.6875q1.015625 -0.125 1.671875 -0.5625q0.65625 -0.4375 1.0625 -1.359375q0.40625 -0.9375 0.40625 -2.09375q0 -1.03125 -0.3125 -1.8125q-0.3125 -0.796875 -0.84375 -1.1875q-0.53125 -0.390625 -1.15625 -0.390625q-0.640625 0 -1.109375 0.375q-0.484375 0.375 -0.8125 1.234375q-0.21875 0.546875 -0.65625 2.421875q-0.453125 1.875 -0.859375 2.625q-0.515625 0.96875 -1.265625 1.453125q-0.75 0.46875 -1.6875 0.46875q-1.03125 0 -1.921875 -0.578125q-0.90625 -0.59375 -1.359375 -1.703125q-0.46875 -1.125 -0.46875 -2.5q0 -1.515625 0.484375 -2.671875q0.484375 -1.15625 1.4375 -1.765625q0.9375 -0.625 2.140625 -0.671875l0.125 1.71875q-1.28125 0.140625 -1.9375 0.953125q-0.671875 0.796875 -0.671875 2.359375q0 1.625 0.609375 2.375q0.59375 0.75 1.4375 0.75q0.734375 0 1.203125 -0.53125q0.46875 -0.515625 0.96875 -2.703125q0.5 -2.203125 0.875 -3.015625q0.546875 -1.1875 1.390625 -1.75q0.828125 -0.578125 1.921875 -0.578125q1.09375 0 2.0625 0.625q0.953125 0.625 1.484375 1.796875q0.53125 1.15625 0.53125 2.609375q0 1.84375 -0.53125 3.09375q-0.546875 1.25 -1.625 1.96875q-1.078125 0.703125 -2.453125 0.734375zm4.375 -18.267487l-13.59375 0l0 -9.84375l1.59375 0l0 8.046875l4.171875 0l0 -7.53125l1.59375 0l0 7.53125l4.625 0l0 -8.359375l1.609375 0l0 10.15625zm0 -12.193573l-9.859375 0l0 -1.5l1.390625 0q-0.71875 -0.453125 -1.15625 -1.21875q-0.453125 -0.78125 -0.453125 -1.765625q0 -1.09375 0.453125 -1.796875q0.453125 -0.703125 1.28125 -0.984375q-1.734375 -1.171875 -1.734375 -3.046875q0 -1.46875 0.8125 -2.25q0.8125 -0.796875 2.5 -0.796875l6.765625 0l0 1.671875l-6.203125 0q-1.0 0 -1.4375 0.15625q-0.453125 0.15625 -0.71875 0.59375q-0.265625 0.421875 -0.265625 1.0q0 1.03125 0.6875 1.71875q0.6875 0.6875 2.21875 0.6875l5.71875 0l0 1.671875l-6.40625 0q-1.109375 0 -1.65625 0.40625q-0.5625 0.40625 -0.5625 1.34375q0 0.703125 0.375 1.3125q0.359375 0.59375 1.078125 0.859375q0.71875 0.265625 2.0625 0.265625l5.109375 0l0 1.671875zm-11.6875 -15.556427l-1.90625 0l0 -1.671875l1.90625 0l0 1.671875zm11.6875 0l-9.859375 0l0 -1.671875l9.859375 0l0 1.671875zm-1.5 -7.7854614l1.484375 -0.234375q0.140625 0.703125 0.140625 1.265625q0 0.90625 -0.28125 1.40625q-0.296875 0.5 -0.75 0.703125q-0.46875 0.203125 -1.984375 0.203125l-5.65625 0l0 1.234375l-1.3125 0l0 -1.234375l-2.4375 0l-1.0 -1.65625l3.4375 0l0 -1.6875l1.3125 0l0 1.6875l5.75 0q0.71875 0 0.921875 -0.078125q0.203125 -0.09375 0.328125 -0.296875q0.125 -0.203125 0.125 -0.578125q0 -0.265625 -0.078125 -0.734375zm0 -5.1832886l1.484375 -0.234375q0.140625 0.703125 0.140625 1.265625q0 0.90625 -0.28125 1.40625q-0.296875 0.5 -0.75 0.703125q-0.46875 0.203125 -1.984375 0.203125l-5.65625 0l0 1.234375l-1.3125 0l0 -1.234375l-2.4375 0l-1.0 -1.65625l3.4375 0l0 -1.6875l1.3125 0l0 1.6875l5.75 0q0.71875 0 0.921875 -0.078125q0.203125 -0.09375 0.328125 -0.296875q0.125 -0.203125 0.125 -0.578125q0 -0.265625 -0.078125 -0.734375zm-1.671875 -8.277069l0.21875 -1.71875q1.5 0.40625 2.34375 1.515625q0.828125 1.09375 0.828125 2.8125q0 2.15625 -1.328125 3.421875q-1.328125 1.265625 -3.734375 1.265625q-2.484375 0 -3.859375 -1.265625q-1.375 -1.28125 -1.375 -3.328125q0 -1.984375 1.34375 -3.234375q1.34375 -1.25 3.796875 -1.25q0.140625 0 0.4375 0.015625l0 7.34375q1.625 -0.09375 2.484375 -0.921875q0.859375 -0.828125 0.859375 -2.0625q0 -0.90625 -0.46875 -1.546875q-0.484375 -0.65625 -1.546875 -1.046875zm-2.703125 5.484375l0 -5.5q-1.234375 0.109375 -1.859375 0.625q-0.96875 0.796875 -0.96875 2.078125q0 1.140625 0.78125 1.9375q0.765625 0.78125 2.046875 0.859375zm5.875 -9.094452l-9.859375 0l0 -1.5l1.5 0q-1.046875 -0.578125 -1.375 -1.0625q-0.34375 -0.484375 -0.34375 -1.078125q0 -0.84375 0.546875 -1.71875l1.546875 0.578125q-0.359375 0.609375 -0.359375 1.234375q0 0.546875 0.328125 0.984375q0.328125 0.421875 0.90625 0.609375q0.890625 0.28125 1.953125 0.28125l5.15625 0l0 1.671875z" fill-rule="nonzero"></path><path fill="#000000" fill-opacity="0.0" d="m22.8084 49.08971l0 0c0 -12.979679 10.522106 -23.501783 23.501781 -23.501783l94.0043 0l0 0c6.2330627 0 12.210831 2.4760723 16.61827 6.8835125c4.40744 4.40744 6.8835144 10.385208 6.8835144 16.61827l0 124.33502c0 12.979675 -10.522095 23.501785 -23.501785 23.501785l-94.0043 0c-12.979675 0 -23.501781 -10.52211 -23.501781 -23.501785z" fill-rule="nonzero"></path><path stroke="#000000" stroke-width="2.0" stroke-linejoin="round" stroke-linecap="butt" stroke-dasharray="8.0,6.0" d="m22.8084 49.08971l0 0c0 -12.979679 10.522106 -23.501783 23.501781 -23.501783l94.0043 0l0 0c6.2330627 0 12.210831 2.4760723 16.61827 6.8835125c4.40744 4.40744 6.8835144 10.385208 6.8835144 16.61827l0 124.33502c0 12.979675 -10.522095 23.501785 -23.501785 23.501785l-94.0043 0c-12.979675 0 -23.501781 -10.52211 -23.501781 -23.501785z" fill-rule="nonzero"></path><path fill="#000000" d="m53.161304 54.625736l1.796875 0.453125q-0.5625 2.21875 -2.03125 3.390625q-1.46875 1.15625 -3.59375 1.15625q-2.203125 0 -3.578125 -0.890625q-1.375 -0.90625 -2.09375 -2.59375q-0.71875 -1.703125 -0.71875 -3.65625q0 -2.125 0.796875 -3.703125q0.8125 -1.578125 2.3125 -2.390625q1.5 -0.828125 3.296875 -0.828125q2.046875 0 3.4375 1.046875q1.390625 1.03125 1.9375 2.90625l-1.765625 0.421875q-0.46875 -1.484375 -1.375 -2.15625q-0.90625 -0.6875 -2.265625 -0.6875q-1.5625 0 -2.625 0.75q-1.046875 0.75 -1.484375 2.03125q-0.421875 1.265625 -0.421875 2.609375q0 1.734375 0.5 3.03125q0.515625 1.28125 1.578125 1.921875q1.078125 0.640625 2.3125 0.640625q1.515625 0 2.5625 -0.859375q1.046875 -0.875 1.421875 -2.59375zm2.9260712 -0.15625q0 -2.734375 1.53125 -4.0625q1.265625 -1.09375 3.09375 -1.09375q2.03125 0 3.3124962 1.34375q1.296875 1.328125 1.296875 3.671875q0 1.90625 -0.578125 3.0q-0.5625 1.078125 -1.6562462 1.6875q-1.078125 0.59375 -2.375 0.59375q-2.0625 0 -3.34375 -1.328125q-1.28125 -1.328125 -1.28125 -3.8125zm1.71875 0q0 1.890625 0.828125 2.828125q0.828125 0.9375 2.078125 0.9375q1.25 0 2.0625 -0.9375q0.828125 -0.953125 0.828125 -2.890625q0 -1.828125 -0.828125 -2.765625q-0.828125 -0.9375 -2.0625 -0.9375q-1.25 0 -2.078125 0.9375q-0.828125 0.9375 -0.828125 2.828125zm9.266338 4.921875l0 -9.859375l1.5 0l0 1.5q0.578125 -1.046875 1.0625 -1.375q0.484375 -0.34375 1.078125 -0.34375q0.84375 0 1.71875 0.546875l-0.578125 1.546875q-0.609375 -0.359375 -1.234375 -0.359375q-0.546875 0 -0.984375 0.328125q-0.421875 0.328125 -0.609375 0.90625q-0.28125 0.890625 -0.28125 1.953125l0 5.15625l-1.671875 0zm12.978302 -3.171875l1.71875 0.21875q-0.40625 1.5 -1.515625 2.34375q-1.09375 0.828125 -2.8125 0.828125q-2.15625 0 -3.421875 -1.328125q-1.265625 -1.328125 -1.265625 -3.734375q0 -2.484375 1.265625 -3.859375q1.28125 -1.375 3.328125 -1.375q1.984375 0 3.234375 1.34375q1.25 1.34375 1.25 3.796875q0 0.140625 -0.015625 0.4375l-7.34375 0q0.09375 1.625 0.921875 2.484375q0.828125 0.859375 2.0625 0.859375q0.90625 0 1.546875 -0.46875q0.65625 -0.484375 1.046875 -1.546875zm-5.484375 -2.703125l5.5 0q-0.109375 -1.234375 -0.625 -1.859375q-0.796875 -0.96875 -2.078125 -0.96875q-1.140625 0 -1.9375 0.78125q-0.78125 0.765625 -0.859375 2.046875zm14.434021 5.875l0 -13.59375l1.796875 0l0 11.984375l6.703125 0l0 1.609375l-8.5 0zm10.250717 -11.6875l0 -1.90625l1.671875 0l0 1.90625l-1.671875 0zm0 11.6875l0 -9.859375l1.671875 0l0 9.859375l-1.671875 0zm5.676071 0l-1.546875 0l0 -13.59375l1.65625 0l0 4.84375q1.0625 -1.328125 2.703125 -1.328125q0.90625 0 1.71875 0.375q0.8125 0.359375 1.328125 1.03125q0.53125 0.65625 0.828125 1.59375q0.296875 0.9375 0.296875 2.0q0 2.53125 -1.25 3.921875q-1.25 1.375 -3.0 1.375q-1.75 0 -2.734375 -1.453125l0 1.234375zm-0.015625 -5.0q0 1.765625 0.46875 2.5625q0.796875 1.28125 2.140625 1.28125q1.09375 0 1.890625 -0.9375q0.796875 -0.953125 0.796875 -2.84375q0 -1.921875 -0.765625 -2.84375q-0.765625 -0.921875 -1.84375 -0.921875q-1.09375 0 -1.890625 0.953125q-0.796875 0.953125 -0.796875 2.75zm8.828842 5.0l0 -9.859375l1.5 0l0 1.5q0.578125 -1.046875 1.0625 -1.375q0.484375 -0.34375 1.078125 -0.34375q0.84375 0 1.71875 0.546875l-0.578125 1.546875q-0.609375 -0.359375 -1.234375 -0.359375q-0.546875 0 -0.984375 0.328125q-0.421875 0.328125 -0.609375 0.90625q-0.28125 0.890625 -0.28125 1.953125l0 5.15625l-1.671875 0zm12.665802 -1.21875q-0.9375 0.796875 -1.796875 1.125q-0.859375 0.3125 -1.84375 0.3125q-1.609375 0 -2.484375 -0.78125q-0.875 -0.796875 -0.875 -2.03125q0 -0.734375 0.328125 -1.328125q0.328125 -0.59375 0.859375 -0.953125q0.53125 -0.359375 1.203125 -0.546875q0.5 -0.140625 1.484375 -0.25q2.03125 -0.25 2.984375 -0.578125q0 -0.34375 0 -0.4375q0 -1.015625 -0.46875 -1.4375q-0.640625 -0.5625 -1.90625 -0.5625q-1.171875 0 -1.734375 0.40625q-0.5625 0.40625 -0.828125 1.46875l-1.640625 -0.234375q0.234375 -1.046875 0.734375 -1.6875q0.515625 -0.640625 1.46875 -0.984375q0.96875 -0.359375 2.25 -0.359375q1.265625 0 2.046875 0.296875q0.78125 0.296875 1.15625 0.75q0.375 0.453125 0.515625 1.140625q0.09375 0.421875 0.09375 1.53125l0 2.234375q0 2.328125 0.09375 2.953125q0.109375 0.609375 0.4375 1.171875l-1.75 0q-0.265625 -0.515625 -0.328125 -1.21875zm-0.140625 -3.71875q-0.90625 0.359375 -2.734375 0.625q-1.03125 0.140625 -1.453125 0.328125q-0.421875 0.1875 -0.65625 0.546875q-0.234375 0.359375 -0.234375 0.796875q0 0.671875 0.5 1.125q0.515625 0.4375 1.484375 0.4375q0.96875 0 1.71875 -0.421875q0.75 -0.4375 1.109375 -1.15625q0.265625 -0.578125 0.265625 -1.671875l0 -0.609375zm4.063217 4.9375l0 -9.859375l1.5 0l0 1.5q0.578125 -1.046875 1.0625 -1.375q0.484375 -0.34375 1.078125 -0.34375q0.84375 0 1.71875 0.546875l-0.578125 1.546875q-0.609375 -0.359375 -1.234375 -0.359375q-0.546875 0 -0.984375 0.328125q-0.421875 0.328125 -0.609375 0.90625q-0.28125 0.890625 -0.28125 1.953125l0 5.15625l-1.671875 0zm6.150177 3.796875l-0.171875 -1.5625q0.546875 0.140625 0.953125 0.140625q0.546875 0 0.875 -0.1875q0.34375 -0.1875 0.5625 -0.515625q0.15625 -0.25 0.5 -1.25q0.046875 -0.140625 0.15625 -0.40625l-3.734375 -9.875l1.796875 0l2.046875 5.71875q0.40625 1.078125 0.71875 2.28125q0.28125 -1.15625 0.6875 -2.25l2.09375 -5.75l1.671875 0l-3.75 10.03125q-0.59375 1.625 -0.9375 2.234375q-0.4375 0.828125 -1.015625 1.203125q-0.578125 0.390625 -1.375 0.390625q-0.484375 0 -1.078125 -0.203125z" fill-rule="nonzero"></path><path fill="#ffffff" d="m52.233597 96.7722l69.11874 0l0 65.416306c-34.55751 0 -34.55751 25.168869 -69.11874 12.584427zm5.6945343 0l0 -8.480812l68.646675 0l0 65.82665c-2.6093826 0 -5.222473 0.45596313 -5.222473 0.45596313l0 -57.801804zm5.3525696 -8.480812l0 -8.275642l69.241394 0l0 65.621475c-2.973648 0 -5.9472885 0.34196472 -5.9472885 0.34196472l0 -57.687798z" fill-rule="nonzero"></path><path fill="#000000" fill-opacity="0.0" d="m52.233597 96.7722l69.11874 0l0 65.416306c-34.55751 0 -34.55751 25.168869 -69.11874 12.584427zm5.6945343 0l0 -8.480812l68.646675 0l0 65.82665c-2.6093826 0 -5.222473 0.45596313 -5.222473 0.45596313m-58.071632 -66.282616l0 -8.275642l69.241394 0l0 65.621475c-2.973648 0 -5.9472885 0.34196472 -5.9472885 0.34196472" fill-rule="nonzero"></path><path fill="#000000" fill-opacity="0.0" d="m52.233597 174.77293c34.561226 12.584442 34.561226 -12.584427 69.11874 -12.584427l0 -7.614502c0 0 2.6130905 -0.45596313 5.222473 -0.45596313l0 -8.138855c0 0 2.9736404 -0.34196472 5.9472885 -0.34196472l0 -65.621475l-69.241394 0l0 8.275642l-5.3525696 0l0 8.480812l-5.6945343 0z" fill-rule="nonzero"></path><path stroke="#000000" stroke-width="2.0" stroke-linejoin="round" stroke-linecap="butt" d="m52.233597 96.7722l69.11874 0l0 65.416306c-34.55751 0 -34.55751 25.168869 -69.11874 12.584427zm5.6945343 0l0 -8.480812l68.646675 0l0 65.82665c-2.6093826 0 -5.222473 0.45596313 -5.222473 0.45596313m-58.071632 -66.282616l0 -8.275642l69.241394 0l0 65.621475c-2.973648 0 -5.9472885 0.34196472 -5.9472885 0.34196472" fill-rule="nonzero"></path><path fill="#000000" d="m75.154655 137.92694l1.796875 0.453125q-0.5625 2.21875 -2.03125 3.390625q-1.46875 1.15625 -3.59375 1.15625q-2.203125 0 -3.578125 -0.890625q-1.375 -0.90625 -2.09375 -2.59375q-0.71875 -1.703125 -0.71875 -3.65625q0 -2.125 0.796875 -3.703125q0.8125 -1.578125 2.3125 -2.390625q1.5 -0.828125 3.296875 -0.828125q2.046875 0 3.4375 1.046875q1.390625 1.03125 1.9375 2.90625l-1.765625 0.421875q-0.46875 -1.484375 -1.375 -2.15625q-0.90625 -0.6875 -2.265625 -0.6875q-1.5625 0 -2.625 0.75q-1.046875 0.75 -1.484375 2.03125q-0.421875 1.265625 -0.421875 2.609375q0 1.734375 0.5 3.03125q0.515625 1.28125 1.578125 1.921875q1.078125 0.640625 2.3125 0.640625q1.515625 0 2.5625 -0.859375q1.046875 -0.875 1.421875 -2.59375zm3.6916962 4.765625l0 -13.59375l1.796875 0l0 11.984375l6.703125 0l0 1.609375l-8.5 0zm9.531967 -3.859375l1.625 -0.21875q0.0625 1.546875 0.578125 2.125q0.53125 0.578125 1.4375 0.578125q0.6875 0 1.171875 -0.3125q0.5 -0.3125 0.671875 -0.84375q0.1875 -0.53125 0.1875 -1.703125l0 -9.359375l1.8125 0l0 9.265625q0 1.703125 -0.421875 2.640625q-0.40625 0.9375 -1.3125 1.4375q-0.890625 0.484375 -2.09375 0.484375q-1.796875 0 -2.75 -1.03125q-0.9375 -1.03125 -0.90625 -3.0625zm9.640625 -0.515625l1.6875 -0.140625q0.125 1.015625 0.5625 1.671875q0.4375 0.65625 1.359375 1.0625q0.9375 0.40625 2.09375 0.40625q1.03125 0 1.8125 -0.3125q0.796875 -0.3125 1.1875 -0.84375q0.390625 -0.53125 0.390625 -1.15625q0 -0.640625 -0.375 -1.109375q-0.375 -0.484375 -1.234375 -0.8125q-0.546875 -0.21875 -2.421875 -0.65625q-1.875 -0.453125 -2.625 -0.859375q-0.96875 -0.515625 -1.453125 -1.265625q-0.46875 -0.75 -0.46875 -1.6875q0 -1.03125 0.578125 -1.921875q0.59375 -0.90625 1.703125 -1.359375q1.125 -0.46875 2.5 -0.46875q1.515625 0 2.671875 0.484375q1.15625 0.484375 1.765625 1.4375q0.625 0.9375 0.671875 2.140625l-1.71875 0.125q-0.140625 -1.28125 -0.953125 -1.9375q-0.796875 -0.671875 -2.359375 -0.671875q-1.625 0 -2.375 0.609375q-0.75 0.59375 -0.75 1.4375q0 0.734375 0.53125 1.203125q0.515625 0.46875 2.703125 0.96875q2.203125 0.5 3.015625 0.875q1.1875 0.546875 1.75 1.390625q0.578125 0.828125 0.578125 1.921875q0 1.09375 -0.625 2.0625q-0.625 0.953125 -1.796875 1.484375q-1.15625 0.53125 -2.609375 0.53125q-1.84375 0 -3.09375 -0.53125q-1.25 -0.546875 -1.96875 -1.625q-0.703125 -1.078125 -0.734375 -2.453125z" fill-rule="nonzero"></path><path fill="#000000" fill-opacity="0.0" d="m22.8084 228.58052l0 0c0 -12.979675 10.522106 -23.501785 23.501781 -23.501785l94.0043 0l0 0c6.2330627 0 12.210831 2.4760742 16.61827 6.8835144c4.40744 4.40744 6.8835144 10.385208 6.8835144 16.61827l0 117.18541c0 12.979675 -10.522095 23.5018 -23.501785 23.5018l-94.0043 0c-12.979675 0 -23.501781 -10.522125 -23.501781 -23.5018z" fill-rule="nonzero"></path><path stroke="#000000" stroke-width="2.0" stroke-linejoin="round" stroke-linecap="butt" stroke-dasharray="8.0,6.0" d="m22.8084 228.58052l0 0c0 -12.979675 10.522106 -23.501785 23.501781 -23.501785l94.0043 0l0 0c6.2330627 0 12.210831 2.4760742 16.61827 6.8835144c4.40744 4.40744 6.8835144 10.385208 6.8835144 16.61827l0 117.18541c0 12.979675 -10.522095 23.5018 -23.501785 23.5018l-94.0043 0c-12.979675 0 -23.501781 -10.522125 -23.501781 -23.5018z" fill-rule="nonzero"></path><path fill="#000000" d="m81.45599 235.94467l1.65625 -0.265625q0.140625 1.0 0.765625 1.53125q0.640625 0.515625 1.78125 0.515625q1.15625 0 1.703125 -0.46875q0.5625 -0.46875 0.5625 -1.09375q0 -0.5625 -0.484375 -0.890625q-0.34375 -0.21875 -1.703125 -0.5625q-1.84375 -0.46875 -2.5625 -0.796875q-0.703125 -0.34375 -1.078125 -0.9375q-0.359375 -0.609375 -0.359375 -1.328125q0 -0.65625 0.296875 -1.21875q0.3125 -0.5625 0.828125 -0.9375q0.390625 -0.28125 1.0625 -0.484375q0.671875 -0.203125 1.4375 -0.203125q1.171875 0 2.046875 0.34375q0.875 0.328125 1.28125 0.90625q0.421875 0.5625 0.578125 1.515625l-1.625 0.21875q-0.109375 -0.75 -0.65625 -1.171875q-0.53125 -0.4375 -1.5 -0.4375q-1.15625 0 -1.640625 0.390625q-0.484375 0.375 -0.484375 0.875q0 0.328125 0.203125 0.59375q0.203125 0.265625 0.640625 0.4375q0.25 0.09375 1.46875 0.4375q1.765625 0.46875 2.46875 0.765625q0.703125 0.296875 1.09375 0.875q0.40625 0.578125 0.40625 1.4375q0 0.828125 -0.484375 1.578125q-0.484375 0.734375 -1.40625 1.140625q-0.921875 0.390625 -2.078125 0.390625q-1.921875 0 -2.9375 -0.796875q-1.0 -0.796875 -1.28125 -2.359375zm9.984375 2.9375l0 -9.859375l1.5 0l0 1.5q0.578125 -1.046875 1.0625 -1.375q0.484375 -0.34375 1.078125 -0.34375q0.84375 0 1.71875 0.546875l-0.578125 1.546875q-0.609375 -0.359375 -1.234375 -0.359375q-0.546875 0 -0.984375 0.328125q-0.421875 0.328125 -0.609375 0.90625q-0.28125 0.890625 -0.28125 1.953125l0 5.15625l-1.671875 0zm12.665802 -3.609375l1.640625 0.21875q-0.265625 1.6875 -1.375 2.65625q-1.109375 0.953125 -2.734375 0.953125q-2.015625 0 -3.25 -1.3125q-1.21875 -1.328125 -1.21875 -3.796875q0 -1.59375 0.515625 -2.78125q0.53125 -1.203125 1.609375 -1.796875q1.09375 -0.609375 2.359375 -0.609375q1.609375 0 2.625 0.8125q1.015625 0.8125 1.3125 2.3125l-1.625 0.25q-0.234375 -1.0 -0.828125 -1.5q-0.59375 -0.5 -1.421875 -0.5q-1.265625 0 -2.0625 0.90625q-0.78125 0.90625 -0.78125 2.859375q0 1.984375 0.765625 2.890625q0.765625 0.890625 1.984375 0.890625q0.984375 0 1.640625 -0.59375q0.65625 -0.609375 0.84375 -1.859375z" fill-rule="nonzero"></path><path fill="#ffffff" d="m52.233597 269.12128l69.11874 0l0 65.41629c-34.55751 0 -34.55751 25.168884 -69.11874 12.584442zm5.6945343 0l0 -8.480804l68.646675 0l0 65.82666c-2.6093826 0 -5.222473 0.45596313 -5.222473 0.45596313l0 -57.80182zm5.3525696 -8.480804l0 -8.27565l69.241394 0l0 65.621475c-2.973648 0 -5.9472885 0.34197998 -5.9472885 0.34197998l0 -57.687805z" fill-rule="nonzero"></path><path fill="#000000" fill-opacity="0.0" d="m52.233597 269.12128l69.11874 0l0 65.41629c-34.55751 0 -34.55751 25.168884 -69.11874 12.584442zm5.6945343 0l0 -8.480804l68.646675 0l0 65.82666c-2.6093826 0 -5.222473 0.45596313 -5.222473 0.45596313m-58.071632 -66.28262l0 -8.27565l69.241394 0l0 65.621475c-2.973648 0 -5.9472885 0.34197998 -5.9472885 0.34197998" fill-rule="nonzero"></path><path fill="#000000" fill-opacity="0.0" d="m52.233597 347.122c34.561226 12.584442 34.561226 -12.584442 69.11874 -12.584442l0 -7.6144714c0 0 2.6130905 -0.45596313 5.222473 -0.45596313l0 -8.138855c0 0 2.9736404 -0.34197998 5.9472885 -0.34197998l0 -65.621475l-69.241394 0l0 8.27565l-5.3525696 0l0 8.480804l-5.6945343 0z" fill-rule="nonzero"></path><path stroke="#000000" stroke-width="2.0" stroke-linejoin="round" stroke-linecap="butt" d="m52.233597 269.12128l69.11874 0l0 65.41629c-34.55751 0 -34.55751 25.168884 -69.11874 12.584442zm5.6945343 0l0 -8.480804l68.646675 0l0 65.82666c-2.6093826 0 -5.222473 0.45596313 -5.222473 0.45596313m-58.071632 -66.28262l0 -8.27565l69.241394 0l0 65.621475c-2.973648 0 -5.9472885 0.34197998 -5.9472885 0.34197998" fill-rule="nonzero"></path><path fill="#000000" d="m75.154655 310.27603l1.796875 0.453125q-0.5625 2.21875 -2.03125 3.390625q-1.46875 1.15625 -3.59375 1.15625q-2.203125 0 -3.578125 -0.890625q-1.375 -0.90625 -2.09375 -2.59375q-0.71875 -1.703125 -0.71875 -3.65625q0 -2.125 0.796875 -3.703125q0.8125 -1.578125 2.3125 -2.390625q1.5 -0.828125 3.296875 -0.828125q2.046875 0 3.4375 1.046875q1.390625 1.03125 1.9375 2.90625l-1.765625 0.421875q-0.46875 -1.484375 -1.375 -2.15625q-0.90625 -0.6875 -2.265625 -0.6875q-1.5625 0 -2.625 0.75q-1.046875 0.75 -1.484375 2.03125q-0.421875 1.265625 -0.421875 2.609375q0 1.734375 0.5 3.03125q0.515625 1.28125 1.578125 1.921875q1.078125 0.640625 2.3125 0.640625q1.515625 0 2.5625 -0.859375q1.046875 -0.875 1.421875 -2.59375zm3.6916962 4.765625l0 -13.59375l1.796875 0l0 11.984375l6.703125 0l0 1.609375l-8.5 0zm9.531967 -3.859375l1.625 -0.21875q0.0625 1.546875 0.578125 2.125q0.53125 0.578125 1.4375 0.578125q0.6875 0 1.171875 -0.3125q0.5 -0.3125 0.671875 -0.84375q0.1875 -0.53125 0.1875 -1.703125l0 -9.359375l1.8125 0l0 9.265625q0 1.703125 -0.421875 2.640625q-0.40625 0.9375 -1.3125 1.4375q-0.890625 0.484375 -2.09375 0.484375q-1.796875 0 -2.75 -1.03125q-0.9375 -1.03125 -0.90625 -3.0625zm9.640625 -0.515625l1.6875 -0.140625q0.125 1.015625 0.5625 1.671875q0.4375 0.65625 1.359375 1.0625q0.9375 0.40625 2.09375 0.40625q1.03125 0 1.8125 -0.3125q0.796875 -0.3125 1.1875 -0.84375q0.390625 -0.53125 0.390625 -1.15625q0 -0.640625 -0.375 -1.109375q-0.375 -0.484375 -1.234375 -0.8125q-0.546875 -0.21875 -2.421875 -0.65625q-1.875 -0.453125 -2.625 -0.859375q-0.96875 -0.515625 -1.453125 -1.265625q-0.46875 -0.75 -0.46875 -1.6875q0 -1.03125 0.578125 -1.921875q0.59375 -0.90625 1.703125 -1.359375q1.125 -0.46875 2.5 -0.46875q1.515625 0 2.671875 0.484375q1.15625 0.484375 1.765625 1.4375q0.625 0.9375 0.671875 2.140625l-1.71875 0.125q-0.140625 -1.28125 -0.953125 -1.9375q-0.796875 -0.671875 -2.359375 -0.671875q-1.625 0 -2.375 0.609375q-0.75 0.59375 -0.75 1.4375q0 0.734375 0.53125 1.203125q0.515625 0.46875 2.703125 0.96875q2.203125 0.5 3.015625 0.875q1.1875 0.546875 1.75 1.390625q0.578125 0.828125 0.578125 1.921875q0 1.09375 -0.625 2.0625q-0.625 0.953125 -1.796875 1.484375q-1.15625 0.53125 -2.609375 0.53125q-1.84375 0 -3.09375 -0.53125q-1.25 -0.546875 -1.96875 -1.625q-0.703125 -1.078125 -0.734375 -2.453125z" fill-rule="nonzero"></path><path fill="#ffffff" d="m677.0 163.4357l69.99872 0l0 66.21005c-34.99933 0 -34.99933 25.227234 -69.99872 10.89357z" fill-rule="nonzero"></path><path stroke="#000000" stroke-width="2.0" stroke-linejoin="round" stroke-linecap="butt" d="m677.0 163.4357l69.99872 0l0 66.21005c-34.99933 0 -34.99933 25.227234 -69.99872 10.89357z" fill-rule="nonzero"></path><path fill="#000000" d="m701.6604 199.60135l1.625 -0.21875q0.0625 1.546875 0.578125 2.125q0.53125 0.578125 1.4375 0.578125q0.6875 0 1.171875 -0.3125q0.5 -0.3125 0.671875 -0.84375q0.1875 -0.53125 0.1875 -1.703125l0 -9.359375l1.8125 0l0 9.265625q0 1.703125 -0.421875 2.640625q-0.40625 0.9375 -1.3125 1.4375q-0.890625 0.484375 -2.09375 0.484375q-1.796875 0 -2.75 -1.03125q-0.9375 -1.03125 -0.90625 -3.0625zm9.640625 -0.515625l1.6875 -0.140625q0.125 1.015625 0.5625 1.671875q0.4375 0.65625 1.359375 1.0625q0.9375 0.40625 2.09375 0.40625q1.03125 0 1.8125 -0.3125q0.796875 -0.3125 1.1875 -0.84375q0.390625 -0.53125 0.390625 -1.15625q0 -0.640625 -0.375 -1.109375q-0.375 -0.484375 -1.234375 -0.8125q-0.546875 -0.21875 -2.421875 -0.65625q-1.875 -0.453125 -2.625 -0.859375q-0.96875 -0.515625 -1.453125 -1.265625q-0.46875 -0.75 -0.46875 -1.6875q0 -1.03125 0.578125 -1.921875q0.59375 -0.90625 1.703125 -1.359375q1.125 -0.46875 2.5 -0.46875q1.515625 0 2.671875 0.484375q1.15625 0.484375 1.765625 1.4375q0.625 0.9375 0.671875 2.140625l-1.71875 0.125q-0.140625 -1.28125 -0.953125 -1.9375q-0.796875 -0.671875 -2.359375 -0.671875q-1.625 0 -2.375 0.609375q-0.75 0.59375 -0.75 1.4375q0 0.734375 0.53125 1.203125q0.515625 0.46875 2.703125 0.96875q2.203125 0.5 3.015625 0.875q1.1875 0.546875 1.75 1.390625q0.578125 0.828125 0.578125 1.921875q0 1.09375 -0.625 2.0625q-0.625 0.953125 -1.796875 1.484375q-1.15625 0.53125 -2.609375 0.53125q-1.84375 0 -3.09375 -0.53125q-1.25 -0.546875 -1.96875 -1.625q-0.703125 -1.078125 -0.734375 -2.453125z" fill-rule="nonzero"></path><path fill="#ffff00" d="m535.1788 369.2756l0 0c-8.297485 0 -15.023926 -6.7264404 -15.023926 -15.023926l0 -314.92853c0 -3.9845924 1.5828857 -7.8059864 4.4003906 -10.623518c2.817566 -2.8175316 6.638977 -4.400404 10.623535 -4.400404l60.093872 0c8.297485 0 15.023926 6.7264385 15.023926 15.023922l0 314.92853c0 8.297485 -6.7264404 15.023926 -15.023926 15.023926z" fill-rule="nonzero"></path><path stroke="#000000" stroke-width="2.0" stroke-linejoin="round" stroke-linecap="butt" d="m535.1788 369.2756l0 0c-8.297485 0 -15.023926 -6.7264404 -15.023926 -15.023926l0 -314.92853c0 -3.9845924 1.5828857 -7.8059864 4.4003906 -10.623518c2.817566 -2.8175316 6.638977 -4.400404 10.623535 -4.400404l60.093872 0c8.297485 0 15.023926 6.7264385 15.023926 15.023922l0 314.92853c0 8.297485 -6.7264404 15.023926 -15.023926 15.023926z" fill-rule="nonzero"></path><path fill="#000000" d="m566.81757 293.6866l-1.609375 0l0 -5.765625l5.046875 0q1.0625 1.328125 1.59375 2.75q0.53125 1.40625 0.53125 2.890625q0 2.0 -0.859375 3.640625q-0.859375 1.625 -2.484375 2.46875q-1.625 0.828125 -3.625 0.828125q-1.984375 0 -3.703125 -0.828125q-1.71875 -0.828125 -2.546875 -2.390625q-0.84375 -1.5625 -0.84375 -3.59375q0 -1.46875 0.484375 -2.65625q0.46875 -1.203125 1.328125 -1.875q0.84375 -0.671875 2.21875 -1.03125l0.4375 1.625q-1.03125 0.3125 -1.625 0.765625q-0.59375 0.453125 -0.953125 1.296875q-0.359375 0.84375 -0.359375 1.875q0 1.234375 0.375 2.140625q0.375 0.890625 1.0 1.453125q0.609375 0.546875 1.34375 0.84375q1.25 0.53125 2.734375 0.53125q1.8125 0 3.046875 -0.625q1.21875 -0.640625 1.8125 -1.828125q0.59375 -1.203125 0.59375 -2.546875q0 -1.171875 -0.453125 -2.28125q-0.453125 -1.109375 -0.953125 -1.6875l-2.53125 0l0 4.0zm0.40625 -7.308319q-2.734375 0 -4.0625 -1.53125q-1.09375 -1.265625 -1.09375 -3.09375q0 -2.03125 1.34375 -3.3125q1.328125 -1.296875 3.671875 -1.296875q1.90625 0 3.0 0.578125q1.078125 0.5625 1.6875 1.65625q0.59375 1.078125 0.59375 2.375q0 2.0625 -1.328125 3.34375q-1.328125 1.28125 -3.8125 1.28125zm0 -1.71875q1.890625 0 2.828125 -0.828125q0.9375 -0.828125 0.9375 -2.078125q0 -1.25 -0.9375 -2.0625q-0.953125 -0.828125 -2.890625 -0.828125q-1.828125 0 -2.765625 0.828125q-0.9375 0.828125 -0.9375 2.0625q0 1.25 0.9375 2.078125q0.9375 0.828125 2.828125 0.828125zm0 -8.656952q-2.734375 0 -4.0625 -1.53125q-1.09375 -1.265625 -1.09375 -3.09375q0 -2.03125 1.34375 -3.3125q1.328125 -1.296875 3.671875 -1.296875q1.90625 0 3.0 0.578125q1.078125 0.5625 1.6875 1.65625q0.59375 1.078125 0.59375 2.375q0 2.0625 -1.328125 3.34375q-1.328125 1.28125 -3.8125 1.28125zm0 -1.71875q1.890625 0 2.828125 -0.828125q0.9375 -0.828125 0.9375 -2.078125q0 -1.25 -0.9375 -2.0625q-0.953125 -0.828125 -2.890625 -0.828125q-1.828125 0 -2.765625 0.828125q-0.9375 0.828125 -0.9375 2.0625q0 1.25 0.9375 2.078125q0.9375 0.828125 2.828125 0.828125zm5.734375 -8.985107l0.25 -1.609375q0.75 -0.109375 1.09375 -0.578125q0.453125 -0.609375 0.453125 -1.6875q0 -1.171875 -0.46875 -1.796875q-0.453125 -0.625 -1.28125 -0.859375q-0.515625 -0.125 -2.15625 -0.109375q1.296875 1.09375 1.296875 2.71875q0 2.03125 -1.46875 3.15625q-1.46875 1.109375 -3.515625 1.109375q-1.40625 0 -2.59375 -0.515625q-1.203125 -0.515625 -1.84375 -1.484375q-0.65625 -0.96875 -0.65625 -2.265625q0 -1.75 1.40625 -2.875l-1.1875 0l0 -1.546875l8.515625 0q2.3125 0 3.265625 0.46875q0.96875 0.46875 1.515625 1.484375q0.5625 1.015625 0.5625 2.5q0 1.765625 -0.796875 2.859375q-0.796875 1.078125 -2.390625 1.03125zm-5.921875 -1.375q1.953125 0 2.84375 -0.765625q0.890625 -0.78125 0.890625 -1.9375q0 -1.140625 -0.890625 -1.921875q-0.890625 -0.78125 -2.78125 -0.78125q-1.8125 0 -2.71875 0.8125q-0.921875 0.796875 -0.921875 1.921875q0 1.109375 0.90625 1.890625q0.890625 0.78125 2.671875 0.78125zm5.109375 -9.266327l-13.59375 0l0 -1.671875l13.59375 0l0 1.671875zm-3.171875 -10.926071l0.21875 -1.71875q1.5 0.40625 2.34375 1.515625q0.828125 1.09375 0.828125 2.8125q0 2.15625 -1.328125 3.421875q-1.328125 1.265625 -3.734375 1.265625q-2.484375 0 -3.859375 -1.265625q-1.375 -1.28125 -1.375 -3.328125q0 -1.984375 1.34375 -3.234375q1.34375 -1.25 3.796875 -1.25q0.140625 0 0.4375 0.015625l0 7.34375q1.625 -0.09375 2.484375 -0.921875q0.859375 -0.828125 0.859375 -2.0625q0 -0.90625 -0.46875 -1.546875q-0.484375 -0.65625 -1.546875 -1.046875zm-2.703125 5.484375l0 -5.5q-1.234375 0.109375 -1.859375 0.625q-0.96875 0.796875 -0.96875 2.078125q0 1.140625 0.78125 1.9375q0.765625 0.78125 2.046875 0.859375zm1.109375 -24.215271l0.453125 -1.796875q2.21875 0.5625 3.390625 2.03125q1.15625 1.46875 1.15625 3.59375q0 2.203125 -0.890625 3.578125q-0.90625 1.375 -2.59375 2.09375q-1.703125 0.71875 -3.65625 0.71875q-2.125 0 -3.703125 -0.796875q-1.578125 -0.8125 -2.390625 -2.3125q-0.828125 -1.5 -0.828125 -3.296875q0 -2.046875 1.046875 -3.4375q1.03125 -1.390625 2.90625 -1.9375l0.421875 1.765625q-1.484375 0.46875 -2.15625 1.375q-0.6875 0.90625 -0.6875 2.265625q0 1.5625 0.75 2.625q0.75 1.046875 2.03125 1.484375q1.265625 0.421875 2.609375 0.421875q1.734375 0 3.03125 -0.5q1.28125 -0.515625 1.921875 -1.578125q0.640625 -1.078125 0.640625 -2.3125q0 -1.515625 -0.859375 -2.5625q-0.875 -1.046875 -2.59375 -1.421875zm4.765625 -3.5198364l-13.59375 0l0 -1.671875l13.59375 0l0 1.671875zm-4.921875 -3.551056q-2.734375 0 -4.0625 -1.53125q-1.09375 -1.265625 -1.09375 -3.09375q0 -2.03125 1.34375 -3.3125q1.328125 -1.296875 3.671875 -1.296875q1.90625 0 3.0 0.578125q1.078125 0.5625 1.6875 1.65625q0.59375 1.078125 0.59375 2.375q0 2.0625 -1.328125 3.34375q-1.328125 1.28125 -3.8125 1.28125zm0 -1.71875q1.890625 0 2.828125 -0.828125q0.9375 -0.828125 0.9375 -2.078125q0 -1.25 -0.9375 -2.0625q-0.953125 -0.828125 -2.890625 -0.828125q-1.828125 0 -2.765625 0.828125q-0.9375 0.828125 -0.9375 2.0625q0 1.25 0.9375 2.078125q0.9375 0.828125 2.828125 0.828125zm1.984375 -8.610107l-0.265625 -1.65625q1.0 -0.140625 1.53125 -0.765625q0.515625 -0.640625 0.515625 -1.78125q0 -1.15625 -0.46875 -1.703125q-0.46875 -0.5625 -1.09375 -0.5625q-0.5625 0 -0.890625 0.484375q-0.21875 0.34375 -0.5625 1.703125q-0.46875 1.84375 -0.796875 2.5625q-0.34375 0.703125 -0.9375 1.078125q-0.609375 0.359375 -1.328125 0.359375q-0.65625 0 -1.21875 -0.296875q-0.5625 -0.3125 -0.9375 -0.828125q-0.28125 -0.390625 -0.484375 -1.0625q-0.203125 -0.671875 -0.203125 -1.4375q0 -1.171875 0.34375 -2.046875q0.328125 -0.875 0.90625 -1.28125q0.5625 -0.421875 1.515625 -0.578125l0.21875 1.625q-0.75 0.109375 -1.171875 0.65625q-0.4375 0.53125 -0.4375 1.5q0 1.15625 0.390625 1.640625q0.375 0.484375 0.875 0.484375q0.328125 0 0.59375 -0.203125q0.265625 -0.203125 0.4375 -0.640625q0.09375 -0.25 0.4375 -1.46875q0.46875 -1.765625 0.765625 -2.46875q0.296875 -0.703125 0.875 -1.09375q0.578125 -0.40625 1.4375 -0.40625q0.828125 0 1.578125 0.484375q0.734375 0.484375 1.140625 1.40625q0.390625 0.921875 0.390625 2.078125q0 1.921875 -0.796875 2.9375q-0.796875 1.0 -2.359375 1.28125zm2.9375 -16.453125l-1.453125 0q1.671875 1.140625 1.671875 3.125q0 0.859375 -0.328125 1.625q-0.34375 0.75 -0.84375 1.125q-0.5 0.359375 -1.234375 0.515625q-0.5 0.09375 -1.5625 0.09375l-6.109375 0l0 -1.671875l5.46875 0q1.3125 0 1.765625 -0.09375q0.65625 -0.15625 1.03125 -0.671875q0.375 -0.515625 0.375 -1.265625q0 -0.75 -0.375 -1.40625q-0.390625 -0.65625 -1.046875 -0.921875q-0.671875 -0.28125 -1.9375 -0.28125l-5.28125 0l0 -1.671875l9.859375 0l0 1.5zm0 -3.906952l-9.859375 0l0 -1.5l1.5 0q-1.046875 -0.578125 -1.375 -1.0625q-0.34375 -0.484375 -0.34375 -1.078125q0 -0.84375 0.546875 -1.71875l1.546875 0.578125q-0.359375 0.609375 -0.359375 1.234375q0 0.546875 0.328125 0.984375q0.328125 0.421875 0.90625 0.609375q0.890625 0.28125 1.953125 0.28125l5.15625 0l0 1.671875zm-3.171875 -12.978302l0.21875 -1.71875q1.5 0.40625 2.34375 1.515625q0.828125 1.09375 0.828125 2.8125q0 2.15625 -1.328125 3.421875q-1.328125 1.265625 -3.734375 1.265625q-2.484375 0 -3.859375 -1.265625q-1.375 -1.28125 -1.375 -3.328125q0 -1.984375 1.34375 -3.234375q1.34375 -1.25 3.796875 -1.25q0.140625 0 0.4375 0.015625l0 7.34375q1.625 -0.09375 2.484375 -0.921875q0.859375 -0.828125 0.859375 -2.0625q0 -0.90625 -0.46875 -1.546875q-0.484375 -0.65625 -1.546875 -1.046875zm-2.703125 5.484375l0 -5.5q-1.234375 0.109375 -1.859375 0.625q-0.96875 0.796875 -0.96875 2.078125q0 1.140625 0.78125 1.9375q0.765625 0.78125 2.046875 0.859375zm1.109375 -24.215271l0.453125 -1.796875q2.21875 0.5625 3.390625 2.03125q1.15625 1.46875 1.15625 3.59375q0 2.203125 -0.890625 3.578125q-0.90625 1.375 -2.59375 2.09375q-1.703125 0.71875 -3.65625 0.71875q-2.125 0 -3.703125 -0.796875q-1.578125 -0.8125 -2.390625 -2.3125q-0.828125 -1.5 -0.828125 -3.296875q0 -2.046875 1.046875 -3.4375q1.03125 -1.390625 2.90625 -1.9375l0.421875 1.765625q-1.484375 0.46875 -2.15625 1.375q-0.6875 0.90625 -0.6875 2.265625q0 1.5625 0.75 2.625q0.75 1.046875 2.03125 1.484375q1.265625 0.421875 2.609375 0.421875q1.734375 0 3.03125 -0.5q1.28125 -0.515625 1.921875 -1.578125q0.640625 -1.078125 0.640625 -2.3125q0 -1.515625 -0.859375 -2.5625q-0.875 -1.046875 -2.59375 -1.421875zm-0.15625 -2.9260864q-2.734375 0 -4.0625 -1.53125q-1.09375 -1.265625 -1.09375 -3.09375q0 -2.03125 1.34375 -3.3125q1.328125 -1.296875 3.671875 -1.296875q1.90625 0 3.0 0.578125q1.078125 0.5625 1.6875 1.65625q0.59375 1.078125 0.59375 2.375q0 2.0625 -1.328125 3.34375q-1.328125 1.28125 -3.8125 1.28125zm0 -1.71875q1.890625 0 2.828125 -0.828125q0.9375 -0.828125 0.9375 -2.078125q0 -1.25 -0.9375 -2.0625q-0.953125 -0.828125 -2.890625 -0.828125q-1.828125 0 -2.765625 0.828125q-0.9375 0.828125 -0.9375 2.0625q0 1.25 0.9375 2.078125q0.9375 0.828125 2.828125 0.828125zm4.921875 -9.281952l-9.859375 0l0 -1.5l1.390625 0q-0.71875 -0.453125 -1.15625 -1.21875q-0.453125 -0.78125 -0.453125 -1.765625q0 -1.09375 0.453125 -1.796875q0.453125 -0.703125 1.28125 -0.984375q-1.734375 -1.171875 -1.734375 -3.046875q0 -1.46875 0.8125 -2.25q0.8125 -0.796875 2.5 -0.796875l6.765625 0l0 1.671875l-6.203125 0q-1.0 0 -1.4375 0.15625q-0.453125 0.15625 -0.71875 0.59375q-0.265625 0.421875 -0.265625 1.0q0 1.03125 0.6875 1.71875q0.6875 0.6875 2.21875 0.6875l5.71875 0l0 1.671875l-6.40625 0q-1.109375 0 -1.65625 0.40625q-0.5625 0.40625 -0.5625 1.34375q0 0.703125 0.375 1.3125q0.359375 0.59375 1.078125 0.859375q0.71875 0.265625 2.0625 0.265625l5.109375 0l0 1.671875zm3.78125 -15.540794l-13.640625 0l0 -1.53125l1.28125 0q-0.75 -0.53125 -1.125 -1.203125q-0.375 -0.6875 -0.375 -1.640625q0 -1.265625 0.65625 -2.234375q0.640625 -0.96875 1.828125 -1.453125q1.1875 -0.5 2.59375 -0.5q1.515625 0 2.734375 0.546875q1.203125 0.546875 1.84375 1.578125q0.640625 1.03125 0.640625 2.171875q0 0.84375 -0.34375 1.515625q-0.359375 0.65625 -0.890625 1.078125l4.796875 0l0 1.671875zm-8.65625 -1.515625q1.90625 0 2.8125 -0.765625q0.90625 -0.78125 0.90625 -1.875q0 -1.109375 -0.9375 -1.890625q-0.9375 -0.796875 -2.921875 -0.796875q-1.875 0 -2.8125 0.78125q-0.9375 0.765625 -0.9375 1.84375q0 1.0625 1.0 1.890625q1.0 0.8125 2.890625 0.8125zm-6.8125 -8.875732l-1.90625 0l0 -1.671875l1.90625 0l0 1.671875zm11.6875 0l-9.859375 0l0 -1.671875l9.859375 0l0 1.671875zm0 -4.097931l-13.59375 0l0 -1.671875l13.59375 0l0 1.671875zm-3.171875 -10.926086l0.21875 -1.71875q1.5 0.40625 2.34375 1.515625q0.828125 1.09375 0.828125 2.8125q0 2.15625 -1.328125 3.421875q-1.328125 1.265625 -3.734375 1.265625q-2.484375 0 -3.859375 -1.265625q-1.375 -1.28125 -1.375 -3.328125q0 -1.984375 1.34375 -3.234375q1.34375 -1.25 3.796875 -1.25q0.140625 0 0.4375 0.015625l0 7.34375q1.625 -0.09375 2.484375 -0.921875q0.859375 -0.828125 0.859375 -2.0625q0 -0.90625 -0.46875 -1.546875q-0.484375 -0.65625 -1.546875 -1.046875zm-2.703125 5.484375l0 -5.5q-1.234375 0.109375 -1.859375 0.625q-0.96875 0.796875 -0.96875 2.078125q0 1.140625 0.78125 1.9375q0.765625 0.78125 2.046875 0.859375zm5.875 -9.094452l-9.859375 0l0 -1.5l1.5 0q-1.046875 -0.578125 -1.375 -1.0625q-0.34375 -0.484375 -0.34375 -1.078125q0 -0.84375 0.546875 -1.71875l1.546875 0.578125q-0.359375 0.609375 -0.359375 1.234375q0 0.546875 0.328125 0.984375q0.328125 0.421875 0.90625 0.609375q0.890625 0.28125 1.953125 0.28125l5.15625 0l0 1.671875z" fill-rule="nonzero"></path></g></svg>

